<?xml version="1.0" encoding="UTF-8"?>
<svg id="Layer_1" data-name="Layer 1" xmlns="http://www.w3.org/2000/svg" viewBox="0 0 48 48">
  <defs>
    <style>
      .cls-1, .cls-2, .cls-3, .cls-4 {
        fill: none;
      }

      .cls-2, .cls-3 {
        stroke-miterlimit: 10;
      }

      .cls-2, .cls-3, .cls-4 {
        stroke: #000;
      }

      .cls-2, .cls-4 {
        stroke-linecap: square;
      }

      .cls-4 {
        stroke-linejoin: bevel;
      }
    </style>
  </defs>
  <rect class="cls-1" x="0" width="48" height="48"/>
  <g>
    <g>
      <polyline class="cls-2" points="26.1 34.31 29.65 45.82 32.35 40.79 37.9 42.46 33.78 31.69"/>
      <polyline class="cls-2" points="14.86 32.11 10.8 40.88 16.86 38.69 19.34 43.76 23.94 35.51"/>
      <path class="cls-3" d="M38.96,17.15c0,8.26-6.7,14.96-14.96,14.96s-14.96-6.7-14.96-14.96S15.74,2.18,24,2.18s14.96,6.7,14.96,14.96"/>
    </g>
    <path class="cls-4" d="M22.7,11.35c1.25-2.05,4-2.76,6.14-1.71.72.35,1.36.9,1.76,1.59,2.12,3.64-2.32,7.43-4.74,9.52-1.27,1.1-2.5,2.27-3.74,3.4,3.04,0,6.07,0,9.11,0"/>
    <polyline class="cls-2" points="14.59 12.72 18.5 9.81 18.5 24.15"/>
  </g>
</svg>